<svg width="394" height="732" viewBox="0 0 394 732" fill="none" xmlns="http://www.w3.org/2000/svg">
<g clip-path="url(#clip0_316_1430)">
<rect width="394" height="732" fill="#F1622A"/>
<rect x="-27" y="540" width="64" height="64" fill="#243721"/>
<rect x="-6.90625" y="560.585" width="23.8147" height="23.8147" fill="#BEA644"/>
<rect x="13.0938" y="540" width="23.8147" height="23.8147" fill="#BEA644"/>
<rect x="13.1836" y="580.186" width="23.8147" height="23.8147" fill="#BEA644"/>
<rect x="37" y="540" width="64" height="64" fill="#243721"/>
<rect x="57.0938" y="560.585" width="23.8147" height="23.8147" fill="#BEA644"/>
<rect x="77.0938" y="540" width="23.8147" height="23.8147" fill="#BEA644"/>
<rect x="37" y="540" width="23.8147" height="23.8147" fill="#BEA644"/>
<rect x="37.0938" y="580.186" width="23.8147" height="23.8147" fill="#BEA644"/>
<rect x="77.1836" y="580.186" width="23.8147" height="23.8147" fill="#BEA644"/>
<rect x="101" y="540" width="64" height="64" fill="#243721"/>
<rect x="121.094" y="560.585" width="23.8147" height="23.8147" fill="#BEA644"/>
<rect x="141.094" y="540" width="23.8147" height="23.8147" fill="#BEA644"/>
<rect x="101" y="540" width="23.8147" height="23.8147" fill="#BEA644"/>
<rect x="101.094" y="580.186" width="23.8147" height="23.8147" fill="#BEA644"/>
<rect x="141.184" y="580.186" width="23.8147" height="23.8147" fill="#BEA644"/>
<rect x="165" y="540" width="64" height="64" fill="#F1622A"/>
<rect x="185" y="540" width="24" height="24" fill="#FFBFB3"/>
<rect x="185" y="580" width="24" height="24" fill="#FFBFB3"/>
<rect x="165" y="560" width="24" height="24" fill="#FFBFB3"/>
<rect x="205" y="560" width="24" height="24" fill="#FFBFB3"/>
<rect x="229" y="540" width="64" height="64" fill="#243721"/>
<rect x="249.094" y="560.585" width="23.8147" height="23.8147" fill="#BEA644"/>
<rect x="269.094" y="540" width="23.8147" height="23.8147" fill="#BEA644"/>
<rect x="229" y="540" width="23.8147" height="23.8147" fill="#BEA644"/>
<rect x="229.094" y="580.186" width="23.8147" height="23.8147" fill="#BEA644"/>
<rect x="269.184" y="580.186" width="23.8147" height="23.8147" fill="#BEA644"/>
<rect x="293" y="540" width="64" height="64" fill="#243721"/>
<rect x="313.094" y="560.585" width="23.8147" height="23.8147" fill="#BEA644"/>
<rect x="333.094" y="540" width="23.8147" height="23.8147" fill="#BEA644"/>
<rect x="293" y="540" width="23.8147" height="23.8147" fill="#BEA644"/>
<rect x="293.094" y="580.186" width="23.8147" height="23.8147" fill="#BEA644"/>
<rect x="333.184" y="580.186" width="23.8147" height="23.8147" fill="#BEA644"/>
<rect x="357" y="540" width="64" height="64" fill="#243721"/>
<rect x="377.094" y="560.585" width="23.8147" height="23.8147" fill="#BEA644"/>
<rect x="357" y="540" width="23.8147" height="23.8147" fill="#BEA644"/>
<rect x="357.094" y="580.186" width="23.8147" height="23.8147" fill="#BEA644"/>
<rect x="185" y="516" width="24" height="24" fill="#FFBFB3"/>
<rect x="421" y="192" width="64" height="64" transform="rotate(180 421 192)" fill="#243721"/>
<rect x="400.906" y="171.415" width="23.8147" height="23.8147" transform="rotate(180 400.906 171.415)" fill="#BEA644"/>
<rect x="380.906" y="192" width="23.8147" height="23.8147" transform="rotate(180 380.906 192)" fill="#BEA644"/>
<rect x="380.816" y="151.814" width="23.8147" height="23.8147" transform="rotate(180 380.816 151.814)" fill="#BEA644"/>
<rect x="357" y="192" width="64" height="64" transform="rotate(180 357 192)" fill="#243721"/>
<rect x="336.906" y="171.415" width="23.8147" height="23.8147" transform="rotate(180 336.906 171.415)" fill="#BEA644"/>
<rect x="316.906" y="192" width="23.8147" height="23.8147" transform="rotate(180 316.906 192)" fill="#BEA644"/>
<rect x="357" y="192" width="23.8147" height="23.8147" transform="rotate(180 357 192)" fill="#BEA644"/>
<rect x="356.906" y="151.814" width="23.8147" height="23.8147" transform="rotate(180 356.906 151.814)" fill="#BEA644"/>
<rect x="316.816" y="151.814" width="23.8147" height="23.8147" transform="rotate(180 316.816 151.814)" fill="#BEA644"/>
<rect x="293" y="192" width="64" height="64" transform="rotate(180 293 192)" fill="#243721"/>
<rect x="272.906" y="171.415" width="23.8147" height="23.8147" transform="rotate(180 272.906 171.415)" fill="#BEA644"/>
<rect x="252.906" y="192" width="23.8147" height="23.8147" transform="rotate(180 252.906 192)" fill="#BEA644"/>
<rect x="293" y="192" width="23.8147" height="23.8147" transform="rotate(180 293 192)" fill="#BEA644"/>
<rect x="292.906" y="151.814" width="23.8147" height="23.8147" transform="rotate(180 292.906 151.814)" fill="#BEA644"/>
<rect x="252.816" y="151.814" width="23.8147" height="23.8147" transform="rotate(180 252.816 151.814)" fill="#BEA644"/>
<rect x="229" y="192" width="64" height="64" transform="rotate(180 229 192)" fill="#F1622A"/>
<rect x="209" y="192" width="24" height="24" transform="rotate(180 209 192)" fill="#FFBFB3"/>
<rect x="209" y="152" width="24" height="24" transform="rotate(180 209 152)" fill="#FFBFB3"/>
<rect x="229" y="172" width="24" height="24" transform="rotate(180 229 172)" fill="#FFBFB3"/>
<rect x="189" y="172" width="24" height="24" transform="rotate(180 189 172)" fill="#FFBFB3"/>
<rect x="165" y="192" width="64" height="64" transform="rotate(180 165 192)" fill="#243721"/>
<rect x="144.906" y="171.415" width="23.8147" height="23.8147" transform="rotate(180 144.906 171.415)" fill="#BEA644"/>
<rect x="124.906" y="192" width="23.8147" height="23.8147" transform="rotate(180 124.906 192)" fill="#BEA644"/>
<rect x="165" y="192" width="23.8147" height="23.8147" transform="rotate(180 165 192)" fill="#BEA644"/>
<rect x="164.906" y="151.814" width="23.8147" height="23.8147" transform="rotate(180 164.906 151.814)" fill="#BEA644"/>
<rect x="124.816" y="151.814" width="23.8147" height="23.8147" transform="rotate(180 124.816 151.814)" fill="#BEA644"/>
<rect x="101" y="192" width="64" height="64" transform="rotate(180 101 192)" fill="#243721"/>
<rect x="80.9062" y="171.415" width="23.8147" height="23.8147" transform="rotate(180 80.9062 171.415)" fill="#BEA644"/>
<rect x="60.9062" y="192" width="23.8147" height="23.8147" transform="rotate(180 60.9062 192)" fill="#BEA644"/>
<rect x="101" y="192" width="23.8147" height="23.8147" transform="rotate(180 101 192)" fill="#BEA644"/>
<rect x="100.906" y="151.814" width="23.8147" height="23.8147" transform="rotate(180 100.906 151.814)" fill="#BEA644"/>
<rect x="60.8164" y="151.814" width="23.8147" height="23.8147" transform="rotate(180 60.8164 151.814)" fill="#BEA644"/>
<rect x="37" y="192" width="64" height="64" transform="rotate(180 37 192)" fill="#243721"/>
<rect x="16.9062" y="171.415" width="23.8147" height="23.8147" transform="rotate(180 16.9062 171.415)" fill="#BEA644"/>
<rect x="37" y="192" width="23.8147" height="23.8147" transform="rotate(180 37 192)" fill="#BEA644"/>
<rect x="36.9062" y="151.814" width="23.8147" height="23.8147" transform="rotate(180 36.9062 151.814)" fill="#BEA644"/>
<rect x="209" y="216" width="24" height="24" transform="rotate(180 209 216)" fill="#FFBFB3"/>
<rect x="-27" y="604" width="64" height="64" fill="#243721"/>
<rect x="-6.90625" y="624.585" width="23.8147" height="23.8147" fill="#BEA644"/>
<rect x="13.0938" y="604" width="23.8147" height="23.8147" fill="#BEA644"/>
<rect x="13.1836" y="644.186" width="23.8147" height="23.8147" fill="#BEA644"/>
<rect x="37" y="604" width="64" height="64" fill="#243721"/>
<rect x="57.0938" y="624.585" width="23.8147" height="23.8147" fill="#BEA644"/>
<rect x="77.0938" y="604" width="23.8147" height="23.8147" fill="#BEA644"/>
<rect x="37" y="604" width="23.8147" height="23.8147" fill="#BEA644"/>
<rect x="37.0938" y="644.186" width="23.8147" height="23.8147" fill="#BEA644"/>
<rect x="77.1836" y="644.186" width="23.8147" height="23.8147" fill="#BEA644"/>
<rect x="101" y="604" width="64" height="64" fill="#F1622A"/>
<rect x="121" y="604" width="24" height="24" fill="#FFBFB3"/>
<rect x="121" y="644" width="24" height="24" fill="#FFBFB3"/>
<rect x="101" y="624" width="24" height="24" fill="#FFBFB3"/>
<rect x="141" y="624" width="24" height="24" fill="#FFBFB3"/>
<rect x="165" y="604" width="64" height="64" fill="#F1622A"/>
<rect x="185" y="604" width="24" height="24" fill="#FFBFB3"/>
<rect x="185" y="644" width="24" height="24" fill="#FFBFB3"/>
<rect x="165" y="624" width="24" height="24" fill="#FFBFB3"/>
<rect x="205" y="624" width="24" height="24" fill="#FFBFB3"/>
<rect x="229" y="604" width="64" height="64" fill="#F1622A"/>
<rect x="249" y="604" width="24" height="24" fill="#FFBFB3"/>
<rect x="249" y="644" width="24" height="24" fill="#FFBFB3"/>
<rect x="229" y="624" width="24" height="24" fill="#FFBFB3"/>
<rect x="269" y="624" width="24" height="24" fill="#FFBFB3"/>
<rect x="293" y="604" width="64" height="64" fill="#243721"/>
<rect x="313.094" y="624.585" width="23.8147" height="23.8147" fill="#BEA644"/>
<rect x="333.094" y="604" width="23.8147" height="23.8147" fill="#BEA644"/>
<rect x="293" y="604" width="23.8147" height="23.8147" fill="#BEA644"/>
<rect x="293.094" y="644.186" width="23.8147" height="23.8147" fill="#BEA644"/>
<rect x="333.184" y="644.186" width="23.8147" height="23.8147" fill="#BEA644"/>
<rect x="357" y="604" width="64" height="64" fill="#243721"/>
<rect x="377.094" y="624.585" width="23.8147" height="23.8147" fill="#BEA644"/>
<rect x="357" y="604" width="23.8147" height="23.8147" fill="#BEA644"/>
<rect x="357.094" y="644.186" width="23.8147" height="23.8147" fill="#BEA644"/>
<rect x="421" y="128" width="64" height="64" transform="rotate(180 421 128)" fill="#243721"/>
<rect x="400.906" y="107.415" width="23.8147" height="23.8147" transform="rotate(180 400.906 107.415)" fill="#BEA644"/>
<rect x="380.906" y="128" width="23.8147" height="23.8147" transform="rotate(180 380.906 128)" fill="#BEA644"/>
<rect x="380.816" y="87.8145" width="23.8147" height="23.8147" transform="rotate(180 380.816 87.8145)" fill="#BEA644"/>
<rect x="357" y="128" width="64" height="64" transform="rotate(180 357 128)" fill="#243721"/>
<rect x="336.906" y="107.415" width="23.8147" height="23.8147" transform="rotate(180 336.906 107.415)" fill="#BEA644"/>
<rect x="316.906" y="128" width="23.8147" height="23.8147" transform="rotate(180 316.906 128)" fill="#BEA644"/>
<rect x="357" y="128" width="23.8147" height="23.8147" transform="rotate(180 357 128)" fill="#BEA644"/>
<rect x="356.906" y="87.8145" width="23.8147" height="23.8147" transform="rotate(180 356.906 87.8145)" fill="#BEA644"/>
<rect x="316.816" y="87.8145" width="23.8147" height="23.8147" transform="rotate(180 316.816 87.8145)" fill="#BEA644"/>
<rect x="293" y="128" width="64" height="64" transform="rotate(180 293 128)" fill="#F1622A"/>
<rect x="273" y="128" width="24" height="24" transform="rotate(180 273 128)" fill="#FFBFB3"/>
<rect x="273" y="88" width="24" height="24" transform="rotate(180 273 88)" fill="#FFBFB3"/>
<rect x="293" y="108" width="24" height="24" transform="rotate(180 293 108)" fill="#FFBFB3"/>
<rect x="253" y="108" width="24" height="24" transform="rotate(180 253 108)" fill="#FFBFB3"/>
<rect x="229" y="128" width="64" height="64" transform="rotate(180 229 128)" fill="#F1622A"/>
<rect x="209" y="128" width="24" height="24" transform="rotate(180 209 128)" fill="#FFBFB3"/>
<rect x="209" y="88" width="24" height="24" transform="rotate(180 209 88)" fill="#FFBFB3"/>
<rect x="229" y="108" width="24" height="24" transform="rotate(180 229 108)" fill="#FFBFB3"/>
<rect x="189" y="108" width="24" height="24" transform="rotate(180 189 108)" fill="#FFBFB3"/>
<rect x="165" y="128" width="64" height="64" transform="rotate(180 165 128)" fill="#F1622A"/>
<rect x="145" y="128" width="24" height="24" transform="rotate(180 145 128)" fill="#FFBFB3"/>
<rect x="145" y="88" width="24" height="24" transform="rotate(180 145 88)" fill="#FFBFB3"/>
<rect x="165" y="108" width="24" height="24" transform="rotate(180 165 108)" fill="#FFBFB3"/>
<rect x="125" y="108" width="24" height="24" transform="rotate(180 125 108)" fill="#FFBFB3"/>
<rect x="101" y="128" width="64" height="64" transform="rotate(180 101 128)" fill="#243721"/>
<rect x="80.9062" y="107.415" width="23.8147" height="23.8147" transform="rotate(180 80.9062 107.415)" fill="#BEA644"/>
<rect x="60.9062" y="128" width="23.8147" height="23.8147" transform="rotate(180 60.9062 128)" fill="#BEA644"/>
<rect x="101" y="128" width="23.8147" height="23.8147" transform="rotate(180 101 128)" fill="#BEA644"/>
<rect x="100.906" y="87.8145" width="23.8147" height="23.8147" transform="rotate(180 100.906 87.8145)" fill="#BEA644"/>
<rect x="60.8164" y="87.8145" width="23.8147" height="23.8147" transform="rotate(180 60.8164 87.8145)" fill="#BEA644"/>
<rect x="37" y="128" width="64" height="64" transform="rotate(180 37 128)" fill="#243721"/>
<rect x="16.9062" y="107.415" width="23.8147" height="23.8147" transform="rotate(180 16.9062 107.415)" fill="#BEA644"/>
<rect x="37" y="128" width="23.8147" height="23.8147" transform="rotate(180 37 128)" fill="#BEA644"/>
<rect x="36.9062" y="87.8145" width="23.8147" height="23.8147" transform="rotate(180 36.9062 87.8145)" fill="#BEA644"/>
<rect x="-27" y="668" width="64" height="64" fill="#243721"/>
<rect x="-6.90625" y="688.585" width="23.8147" height="23.8147" fill="#BEA644"/>
<rect x="13.0938" y="668" width="23.8147" height="23.8147" fill="#BEA644"/>
<rect x="13.1836" y="708.186" width="23.8147" height="23.8147" fill="#BEA644"/>
<rect x="37" y="668" width="64" height="64" fill="#243721"/>
<rect x="57.0938" y="688.585" width="23.8147" height="23.8147" fill="#BEA644"/>
<rect x="77.0938" y="668" width="23.8147" height="23.8147" fill="#BEA644"/>
<rect x="37" y="668" width="23.8147" height="23.8147" fill="#BEA644"/>
<rect x="37.0938" y="708.186" width="23.8147" height="23.8147" fill="#BEA644"/>
<rect x="77.1836" y="708.186" width="23.8147" height="23.8147" fill="#BEA644"/>
<rect x="101" y="668" width="64" height="64" fill="#F1622A"/>
<rect x="121" y="668" width="24" height="24" fill="#FFBFB3"/>
<rect x="121" y="708" width="24" height="24" fill="#FFBFB3"/>
<rect x="101" y="688" width="24" height="24" fill="#FFBFB3"/>
<rect x="141" y="688" width="24" height="24" fill="#FFBFB3"/>
<rect x="165" y="668" width="64" height="64" fill="#F1622A"/>
<rect x="185" y="668" width="24" height="24" fill="#FFBFB3"/>
<rect x="185" y="708" width="24" height="24" fill="#FFBFB3"/>
<rect x="165" y="688" width="24" height="24" fill="#FFBFB3"/>
<rect x="205" y="688" width="24" height="24" fill="#FFBFB3"/>
<rect x="229" y="668" width="64" height="64" fill="#F1622A"/>
<rect x="249" y="668" width="24" height="24" fill="#FFBFB3"/>
<rect x="249" y="708" width="24" height="24" fill="#FFBFB3"/>
<rect x="229" y="688" width="24" height="24" fill="#FFBFB3"/>
<rect x="269" y="688" width="24" height="24" fill="#FFBFB3"/>
<rect x="293" y="668" width="64" height="64" fill="#243721"/>
<rect x="313.094" y="688.585" width="23.8147" height="23.8147" fill="#BEA644"/>
<rect x="333.094" y="668" width="23.8147" height="23.8147" fill="#BEA644"/>
<rect x="293" y="668" width="23.8147" height="23.8147" fill="#BEA644"/>
<rect x="293.094" y="708.186" width="23.8147" height="23.8147" fill="#BEA644"/>
<rect x="333.184" y="708.186" width="23.8147" height="23.8147" fill="#BEA644"/>
<rect x="357" y="668" width="64" height="64" fill="#243721"/>
<rect x="377.094" y="688.585" width="23.8147" height="23.8147" fill="#BEA644"/>
<rect x="357" y="668" width="23.8147" height="23.8147" fill="#BEA644"/>
<rect x="357.094" y="708.186" width="23.8147" height="23.8147" fill="#BEA644"/>
<rect x="421" y="64" width="64" height="64" transform="rotate(180 421 64)" fill="#243721"/>
<rect x="400.906" y="43.415" width="23.8147" height="23.8147" transform="rotate(180 400.906 43.415)" fill="#BEA644"/>
<rect x="380.906" y="64" width="23.8147" height="23.8147" transform="rotate(180 380.906 64)" fill="#BEA644"/>
<rect x="380.816" y="23.8145" width="23.8147" height="23.8147" transform="rotate(180 380.816 23.8145)" fill="#BEA644"/>
<rect x="357" y="64" width="64" height="64" transform="rotate(180 357 64)" fill="#243721"/>
<rect x="336.906" y="43.415" width="23.8147" height="23.8147" transform="rotate(180 336.906 43.415)" fill="#BEA644"/>
<rect x="316.906" y="64" width="23.8147" height="23.8147" transform="rotate(180 316.906 64)" fill="#BEA644"/>
<rect x="357" y="64" width="23.8147" height="23.8147" transform="rotate(180 357 64)" fill="#BEA644"/>
<rect x="356.906" y="23.8145" width="23.8147" height="23.8147" transform="rotate(180 356.906 23.8145)" fill="#BEA644"/>
<rect x="316.816" y="23.8145" width="23.8147" height="23.8147" transform="rotate(180 316.816 23.8145)" fill="#BEA644"/>
<rect x="293" y="64" width="64" height="64" transform="rotate(180 293 64)" fill="#F1622A"/>
<rect x="273" y="64" width="24" height="24" transform="rotate(180 273 64)" fill="#FFBFB3"/>
<rect x="273" y="24" width="24" height="24" transform="rotate(180 273 24)" fill="#FFBFB3"/>
<rect x="293" y="44" width="24" height="24" transform="rotate(180 293 44)" fill="#FFBFB3"/>
<rect x="253" y="44" width="24" height="24" transform="rotate(180 253 44)" fill="#FFBFB3"/>
<rect x="229" y="64" width="64" height="64" transform="rotate(180 229 64)" fill="#F1622A"/>
<rect x="209" y="64" width="24" height="24" transform="rotate(180 209 64)" fill="#FFBFB3"/>
<rect x="209" y="24" width="24" height="24" transform="rotate(180 209 24)" fill="#FFBFB3"/>
<rect x="229" y="44" width="24" height="24" transform="rotate(180 229 44)" fill="#FFBFB3"/>
<rect x="189" y="44" width="24" height="24" transform="rotate(180 189 44)" fill="#FFBFB3"/>
<rect x="165" y="64" width="64" height="64" transform="rotate(180 165 64)" fill="#F1622A"/>
<rect x="145" y="64" width="24" height="24" transform="rotate(180 145 64)" fill="#FFBFB3"/>
<rect x="145" y="24" width="24" height="24" transform="rotate(180 145 24)" fill="#FFBFB3"/>
<rect x="165" y="44" width="24" height="24" transform="rotate(180 165 44)" fill="#FFBFB3"/>
<rect x="125" y="44" width="24" height="24" transform="rotate(180 125 44)" fill="#FFBFB3"/>
<rect x="101" y="64" width="64" height="64" transform="rotate(180 101 64)" fill="#243721"/>
<rect x="80.9062" y="43.415" width="23.8147" height="23.8147" transform="rotate(180 80.9062 43.415)" fill="#BEA644"/>
<rect x="60.9062" y="64" width="23.8147" height="23.8147" transform="rotate(180 60.9062 64)" fill="#BEA644"/>
<rect x="101" y="64" width="23.8147" height="23.8147" transform="rotate(180 101 64)" fill="#BEA644"/>
<rect x="100.906" y="23.8145" width="23.8147" height="23.8147" transform="rotate(180 100.906 23.8145)" fill="#BEA644"/>
<rect x="60.8164" y="23.8145" width="23.8147" height="23.8147" transform="rotate(180 60.8164 23.8145)" fill="#BEA644"/>
<rect x="37" y="64" width="64" height="64" transform="rotate(180 37 64)" fill="#243721"/>
<rect x="16.9062" y="43.415" width="23.8147" height="23.8147" transform="rotate(180 16.9062 43.415)" fill="#BEA644"/>
<rect x="37" y="64" width="23.8147" height="23.8147" transform="rotate(180 37 64)" fill="#BEA644"/>
<rect x="36.9062" y="23.8145" width="23.8147" height="23.8147" transform="rotate(180 36.9062 23.8145)" fill="#BEA644"/>
</g>
<defs>
<clipPath id="clip0_316_1430">
<rect width="394" height="732" fill="white"/>
</clipPath>
</defs>
</svg>
